<?xml version="1.0" standalone="no"?>
<!DOCTYPE svg PUBLIC "-//W3C//DTD SVG 20010904//EN"
 "http://www.w3.org/TR/2001/REC-SVG-20010904/DTD/svg10.dtd">
<svg version="1.0" xmlns="http://www.w3.org/2000/svg"
 width="96.000000pt" height="96.000000pt" viewBox="0 0 96.000000 96.000000"
 preserveAspectRatio="xMidYMid meet">

<g transform="translate(0.000000,96.000000) scale(0.100000,-0.100000)"
fill="#000000" stroke="none">
<path d="M142 837 c-12 -13 -22 -31 -22 -40 0 -9 -16 -28 -36 -43 -34 -26 -36
-31 -31 -72 7 -62 48 -103 104 -104 23 0 52 7 64 16 21 14 25 14 40 0 23 -20
90 -20 121 0 44 29 62 92 33 116 -19 15 -45 -3 -45 -31 0 -24 -36 -48 -62 -41
-11 3 -26 20 -34 38 -8 18 -18 36 -24 39 -15 9 -40 -13 -40 -36 0 -24 -36 -48
-61 -42 -12 3 -26 17 -32 31 -10 22 -8 27 26 56 22 19 37 40 37 54 l0 22 229
0 c191 0 231 2 241 15 10 12 10 18 0 30 -10 13 -51 15 -249 15 -235 0 -238 0
-259 -23z"/>
<path d="M724 845 c-10 -25 4 -45 31 -45 20 0 25 -5 25 -24 0 -15 12 -33 35
-50 40 -31 45 -58 14 -79 -29 -21 -59 -9 -75 29 -8 18 -18 36 -24 39 -15 9
-40 -13 -40 -36 0 -24 -36 -48 -62 -41 -11 3 -26 20 -34 38 -8 18 -18 36 -24
39 -15 9 -40 -13 -40 -35 0 -23 -22 -41 -56 -45 -29 -3 -45 -21 -37 -42 8 -22
75 -20 107 3 17 12 22 11 37 -2 23 -20 90 -20 121 0 23 15 27 15 38 1 7 -8 19
-15 26 -15 10 0 14 -30 16 -137 l3 -138 25 0 25 0 3 137 c2 132 4 139 26 153
29 19 46 56 46 99 0 27 -7 39 -35 60 -19 15 -35 35 -35 45 0 45 -101 85 -116
46z"/>
<path d="M358 534 c-29 -15 -50 -49 -62 -98 -4 -16 -16 -41 -27 -54 -16 -21
-19 -41 -19 -133 l0 -109 -35 0 -35 0 -2 168 -3 167 -25 0 -25 0 -3 -174 c-2
-168 -2 -175 20 -198 l21 -23 317 0 317 0 22 24 c17 18 22 33 19 67 -3 39 -6
44 -28 44 -22 0 -25 -5 -28 -37 -3 -36 -5 -38 -38 -38 l-34 0 0 109 c0 92 -3
112 -19 133 -11 13 -23 38 -27 54 -12 50 -33 83 -64 99 -40 20 -204 20 -242
-1z m226 -60 c9 -8 16 -24 16 -35 0 -18 -8 -19 -120 -19 -112 0 -120 1 -120
19 0 40 26 51 120 51 67 0 92 -4 104 -16z m54 -126 c7 -7 12 -34 12 -60 l0
-48 -170 0 -170 0 0 48 c0 26 5 53 12 60 17 17 299 17 316 0z m-48 -188 c0
-19 -7 -20 -110 -20 -103 0 -110 1 -110 20 0 19 7 20 110 20 103 0 110 -1 110
-20z"/>
<path d="M344 316 c-10 -26 4 -48 28 -44 33 4 33 52 0 56 -13 2 -25 -3 -28
-12z"/>
<path d="M564 316 c-10 -26 4 -48 28 -44 33 4 33 52 0 56 -13 2 -25 -3 -28
-12z"/>
</g>
</svg>
